<?xml version="1.0" encoding="UTF-8"?>
<svg id="Layer_1" data-name="Layer 1" xmlns="http://www.w3.org/2000/svg" viewBox="0 0 1080 1080">
  <defs>
    <style>
      .cls-1 {
        fill: #fff;
      }

      .cls-1, .cls-2, .cls-3 {
        stroke-width: 0px;
      }

      .cls-2, .cls-4 {
        fill: #231f20;
      }

      .cls-4 {
        font-family: Nunito-Regular, Nunito;
        font-size: 65.18px;
        font-variation-settings: 'wght' 400;
      }

      .cls-3 {
        fill: #31429a;
      }
    </style>
  </defs>
  <g>
    <path class="cls-3" d="M312.85,570.86c0-3.51,1.21-6.53,3.64-9.04,2.42-2.51,5.48-3.77,9.16-3.77s6.53,1.26,9.04,3.77c2.51,2.51,3.77,5.52,3.77,9.04s-1.26,6.53-3.77,9.04c-2.51,2.51-5.52,3.77-9.04,3.77s-6.74-1.26-9.16-3.77c-2.43-2.51-3.64-5.52-3.64-9.04ZM314.1,592.7h22.85v106.96h-22.85v-106.96Z"/>
    <path class="cls-3" d="M392.94,647.18l-37.91-54.48h28.87l22.34,36.66,21.84-36.66h26.86l-37.66,53.23,39.17,53.73h-29.12l-22.6-35.9-23.6,35.9h-27.12l38.92-52.47Z"/>
    <path class="cls-2" d="M483.32,659.48c5.35,5.52,11.55,10.04,18.58,13.56,7.03,3.51,14.56,5.27,22.6,5.27,9.87-.17,17.87-2.01,23.98-5.52,6.11-3.52,9.16-8.62,9.16-15.31,0-5.19-2.22-8.87-6.65-11.05-4.44-2.17-9.96-3.85-16.57-5.02-6.61-1.17-13.77-2.22-21.47-3.14-7.7-.92-14.86-2.68-21.47-5.27-6.61-2.59-12.14-6.4-16.57-11.42-4.44-5.02-6.65-12.3-6.65-21.84,0-6.19,1.51-11.84,4.52-16.95,3.01-5.1,7.11-9.5,12.3-13.18,5.19-3.68,11.3-6.53,18.33-8.54,7.03-2.01,14.48-3.01,22.34-3.01,22.76,0,41.18,7.03,55.24,21.09l-19.08,17.07c-6.36-6.19-12.51-10.5-18.45-12.93-5.94-2.42-12.35-3.64-19.21-3.64-5.36,0-9.88.59-13.56,1.76-3.68,1.17-6.65,2.68-8.91,4.52-2.26,1.84-3.94,3.89-5.02,6.15-1.09,2.26-1.63,4.39-1.63,6.4,0,5.19,2.22,8.87,6.65,11.05,4.43,2.18,9.96,3.81,16.57,4.9,6.61,1.09,13.77,2.05,21.47,2.89,7.7.84,14.85,2.55,21.47,5.15,6.61,2.6,12.13,6.49,16.57,11.67,4.43,5.19,6.65,12.55,6.65,22.09,0,7.2-1.72,13.64-5.15,19.33-3.43,5.69-7.95,10.55-13.56,14.56-5.61,4.02-12.09,7.07-19.46,9.16-7.37,2.09-14.98,3.14-22.85,3.14-9.88,0-20.05-1.97-30.51-5.9-10.46-3.93-20.13-10.5-29-19.71l19.33-17.32Z"/>
    <path class="cls-2" d="M598.31,592.7h13.06v-28.37l23.35-6.28v34.65h18.33v21.59h-18.33v42.18c0,5.86.71,10.29,2.13,13.31,1.42,3.01,3.89,5.52,7.41,7.53l12.3,7.03-10.29,18.08c-5.86-2.68-10.98-5.31-15.37-7.91-4.39-2.59-8.02-5.48-10.9-8.66-2.88-3.18-5.03-6.78-6.47-10.8-1.44-4.02-2.16-8.79-2.16-14.31v-46.45h-13.06v-21.59Z"/>
    <path class="cls-2" d="M665.35,646.18c0-7.03,1.34-13.93,4.02-20.71,2.67-6.78,6.53-12.8,11.55-18.08,5.02-5.27,11.17-9.5,18.45-12.68,7.28-3.18,15.61-4.77,24.98-4.77s17.7,1.59,24.98,4.77c7.28,3.18,13.43,7.41,18.45,12.68,5.02,5.27,8.87,11.3,11.55,18.08,2.68,6.78,4.02,13.68,4.02,20.71s-1.34,13.93-4.02,20.71c-2.68,6.78-6.53,12.8-11.55,18.08-5.02,5.27-11.17,9.5-18.45,12.68-7.28,3.18-15.61,4.77-24.98,4.77s-17.7-1.59-24.98-4.77c-7.28-3.18-13.43-7.41-18.45-12.68-5.02-5.27-8.87-11.3-11.55-18.08-2.68-6.78-4.02-13.68-4.02-20.71ZM689.7,646.18c0,4.86.88,9.38,2.64,13.56,1.76,4.19,4.14,7.87,7.16,11.05,3.01,3.18,6.65,5.65,10.92,7.41,4.27,1.76,8.91,2.64,13.93,2.64s9.67-.88,13.93-2.64c4.27-1.76,7.95-4.23,11.05-7.41,3.09-3.18,5.52-6.86,7.28-11.05,1.76-4.18,2.64-8.7,2.64-13.56s-.88-9.37-2.64-13.56c-1.76-4.18-4.19-7.87-7.28-11.05-3.1-3.18-6.78-5.65-11.05-7.41-4.27-1.76-8.91-2.64-13.93-2.64s-9.67.88-13.93,2.64c-4.27,1.76-7.91,4.23-10.92,7.41-3.01,3.18-5.4,6.87-7.16,11.05-1.76,4.19-2.64,8.7-2.64,13.56Z"/>
    <path class="cls-2" d="M804.69,592.7h21.84v11.8h.49c1.85-4.35,4.66-7.87,8.42-10.54,3.77-2.68,7.99-4.02,12.68-4.02,5.02,0,9.2,1.09,12.55,3.26l-8.29,22.6c-1.17-.84-2.6-1.54-4.27-2.13-1.68-.58-3.1-.88-4.27-.88-4.19,0-7.87,1.47-11.05,4.39-3.18,2.93-4.77,6.82-4.77,11.67v70.8h-23.35v-106.96Z"/>
    <path class="cls-2" d="M978.05,653.32c-2.6,9.91-6.88,18.69-12.85,26.34-5.97,7.64-13.4,13.42-22.29,17.32-8.59,3.77-16.85,5.65-24.79,5.67-7.94.01-15.28-1.39-21.99-4.2-6.72-2.81-12.66-6.78-17.84-11.92-5.18-5.13-9.18-10.92-12-17.35-2.82-6.44-4.37-13.3-4.64-20.58-.27-7.28.83-14.35,3.32-21.19,2.48-6.85,6.42-13.19,11.81-19.02,5.39-5.84,12.38-10.64,20.96-14.4,5.06-2.22,11.05-3.56,17.97-4.04,6.92-.47,13.9.44,20.94,2.74,7.04,2.3,13.76,6.17,20.16,11.58,6.4,5.42,11.68,12.88,15.85,22.38l1.71,3.91-81.39,35.7c1.92,3.54,4.46,6.5,7.6,8.87,3.15,2.37,6.61,4.09,10.39,5.18,3.78,1.08,7.67,1.48,11.67,1.19,4-.29,7.85-1.25,11.54-2.87,11.39-4.99,18.63-14.2,21.74-27.63l22.14,2.35ZM942.09,623.86c-5.45-6.56-11.63-10.61-18.55-12.15-6.91-1.54-13.76-.82-20.53,2.15-6.77,2.97-11.8,7.51-15.09,13.61-3.29,6.1-4.16,13.2-2.63,21.3l56.79-24.91Z"/>
    <path class="cls-3" d="M301.3,684.34l-10.05,18.08c-5.87-2.68-10.96-5.32-15.32-7.91-4.35-2.59-7.95-5.48-10.8-8.66-2.84-3.18-4.98-6.78-6.4-10.8-1.43-4.02-2.13-8.79-2.13-14.31v-99.92h22.84v95.66c0,6.36.76,10.91,2.27,13.68,1.5,2.76,3.93,5.14,7.28,7.15l12.3,7.03Z"/>
    <polygon class="cls-3" points="239.28 699.66 206.65 699.66 166.22 640.66 149.15 640.66 149.15 699.66 123.54 699.66 123.54 560.82 149.15 560.82 149.15 616.31 158.69 616.31 161.27 613.24 205.39 560.82 237.27 560.82 224.55 575.39 220.31 580.25 183.8 622.08 239.28 699.66"/>
    <text class="cls-4" transform="translate(119.43 788.63)"><tspan x="0" y="0">SHOPPING COMPANION</tspan></text>
  </g>
  <g>
    <rect class="cls-3" x="409.22" y="233.22" width="279.04" height="271.83" rx="16.8" ry="16.8"/>
    <g>
      <g>
        <path class="cls-1" d="M490.84,284.07c5.54.95,10.61,1.71,15.6,2.8.73.16,1.69,2.03,1.51,2.88-.18.81-1.78,1.97-2.64,1.88-4.93-.56-9.84-1.33-14.7-2.33-.8-.16-1.84-1.82-1.78-2.72.06-.91,1.35-1.74,2.02-2.51Z"/>
        <path class="cls-1" d="M513.78,306.11c-1.1.67-2.24,1.28-3.29,2.02-3.56,2.53-6.98,5.25-10.67,7.56-.99.62-2.74.04-4.14,0,.43-1.44.41-3.43,1.37-4.23,3.33-2.8,6.9-5.36,10.61-7.63,1.11-.67,2.99-.08,4.51-.07.54.78,1.07,1.56,1.61,2.34Z"/>
        <path class="cls-1" d="M518.29,275.44c-.98.64-1.83,1.54-2.83,1.75-.89.19-2.37-.06-2.86-.68-3.04-3.92-5.94-7.95-8.69-12.08-.44-.66-.22-2.33.34-2.91.56-.57,2.51-.84,2.85-.42,3.54,4.28,6.87,8.73,11.19,14.34Z"/>
        <path class="cls-1" d="M528.14,271.01c.88-5.33,1.52-10.11,2.56-14.8.2-.88,1.99-1.41,3.05-2.1.61,1.09,1.82,2.24,1.72,3.25-.48,4.63-1.19,9.25-2.16,13.8-.21.98-1.86,2.31-2.82,2.28-.86-.02-1.68-1.67-2.36-2.43Z"/>
        <path class="cls-1" d="M556.43,268.29c1.14.71,2.42,1.07,2.72,1.82.32.81.08,2.45-.54,2.92-4.04,3.12-8.21,6.1-12.47,8.92-.62.41-2.3.09-2.86-.5-.53-.56-.69-2.45-.24-2.82,4.3-3.52,8.77-6.83,13.38-10.35Z"/>
      </g>
      <g>
        <path class="cls-1" d="M648.69,442.05c-4.52,0-8.52-.06-12.53.02-1.32.03-2.2-.36-3.04-1.4-7.38-9.01-14.81-17.99-22.23-26.96-2.36-2.85-4.75-5.67-7.23-8.63-.8.96-1.48,1.77-2.15,2.57-9.07,10.97-18.15,21.93-27.18,32.93-.89,1.08-1.79,1.5-3.19,1.5-2.59-.02-5.18-.02-7.77-.03.01.01.01.02.02.03h-39.54l-19.68-39.54c-4.73-9.27-18.91-40.11-28.75-40.11l-12.68,16.64v48.63c0,10.21,8.9,11.34,10.79,14.37h-48.43c.19-.31.46-.6.79-.88,2.82-2.48,10-4.34,10-13.5v-122.21c0-10.22-8.9-11.54-10.79-14.37h48.43c-1.89,2.84-10.79,4.16-10.79,14.37v69.05l52.41-69.05c6.8-9.65,1.7-11.54-.19-14.37h9.39s.05.21.05.21l.19,1.01.06.31.64,3.41.07.33.09.48.06.31.1.55.09.48.05.21.03.17.02.14.03.15h0c-2.6,1.71-5.14,3.85-7.27,6.64l-40.87,53.91c24.79,0,42.57,19.87,52.78,39.54,5.48,10.79,10.22,19.87,14.94,28.76.21.4.42.79.64,1.16,12.45-15.07,24.91-30.15,37.4-45.19,1.01-1.22,1.04-1.92.02-3.14-13.85-16.65-27.62-33.36-41.47-50.02-1.03-1.24-1.42-2.31-.51-3.76,35.29,34.26,67.45,71.34,100.62,108.03h0c1.94,2.13,3.86,4.26,5.79,6.38.26.3.54.58.8.88Z"/>
        <path class="cls-1" d="M648.69,442.05c-4.52,0-8.52-.06-12.53.02-1.32.03-2.2-.36-3.04-1.4-7.38-9.01-14.81-17.99-22.23-26.96-2.36-2.85-4.75-5.67-7.23-8.63-.8.96-1.48,1.77-2.15,2.57-9.07,10.97-18.15,21.93-27.18,32.93-.89,1.08-1.79,1.5-3.19,1.5-2.59-.02-5.18-.02-7.77-.03.01.01.01.02.02.03h-39.54l-19.68-39.54c-4.73-9.27-18.91-40.11-28.75-40.11l-12.68,16.64v48.63c0,10.21,8.9,11.34,10.79,14.37h-48.43c.19-.31.46-.6.79-.88,2.82-2.48,10-4.34,10-13.5v-122.21c0-10.22-8.9-11.54-10.79-14.37h48.43c-1.89,2.84-10.79,4.16-10.79,14.37v69.05l52.41-69.05c6.8-9.65,1.7-11.54-.19-14.37h9.39s.05.21.05.21l.19,1.01.06.31.64,3.41.07.33.09.48.06.31.1.55.09.48.05.21.03.17.02.14.03.15h0c-2.6,1.71-5.14,3.85-7.27,6.64l-40.87,53.91c24.79,0,42.57,19.87,52.78,39.54,5.48,10.79,10.22,19.87,14.94,28.76.21.4.42.79.64,1.16,12.45-15.07,24.91-30.15,37.4-45.19,1.01-1.22,1.04-1.92.02-3.14-13.85-16.65-27.62-33.36-41.47-50.02-1.03-1.24-1.42-2.31-.51-3.76,35.29,34.26,67.45,71.34,100.62,108.03h0c1.94,2.13,3.86,4.26,5.79,6.38.26.3.54.58.8.88Z"/>
        <path class="cls-1" d="M669.05,442.05c-3.84,0-7.15-.05-10.47.02-1.01.02-1.73-.23-2.38-.87-.16-.15-.31-.32-.47-.52-4.28-5.63-8.57-11.27-12.86-16.89-8.03-10.55-16.07-21.1-24.13-31.63-15.55-20.38-31.11-40.73-46.66-61.11-1.28-1.67-2.54-3.36-4.06-5.38,2.56.18,4.59-.47,6.4,1.83,6.12,7.77,12.52,15.31,18.82,22.93,2.39,2.88,4.8,5.75,7.27,8.69.46-.51.74-.83,1.03-1.17,8.55-10.33,17.11-20.66,25.64-31.02.75-.92,1.51-1.26,2.7-1.25,11.4.05,22.8.02,34.22.02.52,0,1.06.08,1.91.14-15.61,18.86-30.99,37.49-46.53,56.27,9.58,11.6,19.14,23.15,28.73,34.75,6.38,7.72,12.79,15.46,19.24,23.26.54.64,1.06,1.29,1.59,1.92Z"/>
        <path class="cls-1" d="M669.05,442.05c-3.84,0-7.15-.05-10.47.02-1.01.02-1.73-.23-2.38-.87-.16-.15-.31-.32-.47-.52-4.28-5.63-8.57-11.27-12.86-16.89-8.03-10.55-16.07-21.1-24.13-31.63-15.55-20.38-31.11-40.73-46.66-61.11-1.28-1.67-2.54-3.36-4.06-5.38,2.56.18,4.59-.47,6.4,1.83,6.12,7.77,12.52,15.31,18.82,22.93,2.39,2.88,4.8,5.75,7.27,8.69.46-.51.74-.83,1.03-1.17,8.55-10.33,17.11-20.66,25.64-31.02.75-.92,1.51-1.26,2.7-1.25,11.4.05,22.8.02,34.22.02.52,0,1.06.08,1.91.14-15.61,18.86-30.99,37.49-46.53,56.27,9.58,11.6,19.14,23.15,28.73,34.75,6.38,7.72,12.79,15.46,19.24,23.26.54.64,1.06,1.29,1.59,1.92Z"/>
        <path class="cls-1" d="M649.58,438.06c-2.39-2.6-4.77-5.21-7.15-7.81-34.54-37.83-68.33-76.32-105.21-112.05-1.36,5.13-2.7,10.21-4.04,15.27h-.41c-2.16-11.41-4.33-22.83-6.53-34.43-.02-.13-.05-.26-.07-.4-.48-2.49-.96-5-1.44-7.52-.02-.13-.05-.25-.07-.38-.21-1.06-.4-2.12-.6-3.19,2.38,1.07,4.76,2.13,7.13,3.19l.85.38c1.61.72,3.21,1.44,4.82,2.14.15.07.3.14.46.21,10.9,4.86,21.64,9.65,32.38,14.43-.05.1-.09.19-.13.3-6.73-.65-13.46-1.3-20.61-1.99,31.35,41.09,62.45,81.85,93.55,122.6h0c2.36,3.1,4.7,6.17,7.06,9.26Z"/>
      </g>
      <polygon class="cls-1" points="524.34 291.12 524.35 291.12 524.35 291.13 524.34 291.12"/>
    </g>
    <path class="cls-1" d="M663.72,410.26c23.66,16.41,16.14,51.34-11.44,58.49-12.12,3.42-24.74,2.68-37.14,2.12-48.4-3-98.73-18.13-145.83.01-11.46,4.4-22.08,10.9-30.96,19.44,4.24-4.47,8.96-8.5,14.07-12,15.52-10.4,33.91-15.64,52.33-17.78,43.22-4.95,85.8,8.46,128.92,8.12,11.88-.17,24.8-1.94,33.58-10.59,13.84-13.57,12.04-36.29-3.53-47.81h0Z"/>
  </g>
</svg>